<svg xmlns="http://www.w3.org/2000/svg" style="display: none;"><symbol id="promotion" viewBox="0 -14 512.00001 512"><title>promotion</title><path d="m136.964844 308.234375c4.78125-2.757813 6.417968-8.878906 3.660156-13.660156-2.761719-4.777344-8.878906-6.417969-13.660156-3.660157-4.78125 2.761719-6.421875 8.882813-3.660156 13.660157 2.757812 4.78125 8.878906 6.421875 13.660156 3.660156zm0 0"/><path d="m95.984375 377.253906 50.359375 87.230469c10.867188 18.84375 35.3125 25.820313 54.644531 14.644531 19.128907-11.054687 25.703125-35.496094 14.636719-54.640625l-30-51.96875 25.980469-15c4.78125-2.765625 6.421875-8.878906 3.660156-13.660156l-13.003906-22.523437c1.550781-.300782 11.746093-2.300782 191.539062-37.570313 22.226563-1.207031 35.542969-25.515625 24.316407-44.949219l-33.234376-57.5625 21.238282-32.167968c2.085937-3.164063 2.210937-7.230469.316406-10.511719l-20-34.640625c-1.894531-3.28125-5.492188-5.203125-9.261719-4.980469l-38.472656 2.308594-36.894531-63.90625c-5.34375-9.257813-14.917969-14.863281-25.605469-14.996094-.128906-.003906-.253906-.003906-.382813-.003906-10.328124 0-19.703124 5.140625-25.257812 13.832031l-130.632812 166.414062-84.925782 49.03125c-33.402344 19.277344-44.972656 62.128907-25.621094 95.621094 17.679688 30.625 54.953126 42.671875 86.601563 30zm102.324219 57.238282c5.523437 9.554687 2.253906 21.78125-7.328125 27.316406-9.613281 5.558594-21.855469 2.144531-27.316407-7.320313l-50-86.613281 34.640626-20c57.867187 100.242188 49.074218 85.011719 50.003906 86.617188zm-22.683594-79.296876-10-17.320312 17.320312-10 10 17.320312zm196.582031-235.910156 13.820313 23.9375-12.324219 18.664063-23.820313-41.261719zm-104.917969-72.132812c2.683594-4.390625 6.941407-4.84375 8.667969-4.796875 1.707031.019531 5.960938.550781 8.527344 4.996093l116.3125 201.464844c3.789063 6.558594-.816406 14.804688-8.414063 14.992188-1.363281.03125-1.992187.277344-5.484374.929687l-123.035157-213.105469c2.582031-3.320312 2.914063-3.640624 3.425781-4.480468zm-16.734374 21.433594 115.597656 200.222656-174.460938 34.21875-53.046875-91.878906zm-223.851563 268.667968c-4.390625-7.597656-6.710937-16.222656-6.710937-24.949218 0-17.835938 9.585937-34.445313 25.011718-43.351563l77.941406-45 50 86.601563-77.941406 45.003906c-23.878906 13.78125-54.515625 5.570312-68.300781-18.304688zm0 0"/><path d="m105.984375 314.574219c-2.761719-4.78125-8.878906-6.421875-13.660156-3.660157l-17.320313 10c-4.773437 2.757813-10.902344 1.113282-13.660156-3.660156-2.761719-4.78125-8.878906-6.421875-13.660156-3.660156s-6.421875 8.878906-3.660156 13.660156c8.230468 14.257813 26.589843 19.285156 40.980468 10.980469l17.320313-10c4.78125-2.761719 6.421875-8.875 3.660156-13.660156zm0 0"/><path d="m497.136719 43.746094-55.722657 31.007812c-4.824218 2.6875-6.5625 8.777344-3.875 13.601563 2.679688 4.820312 8.765626 6.566406 13.601563 3.875l55.71875-31.007813c4.828125-2.6875 6.5625-8.777344 3.875-13.601562-2.683594-4.828125-8.773437-6.5625-13.597656-3.875zm0 0"/><path d="m491.292969 147.316406-38.636719-10.351562c-5.335938-1.429688-10.820312 1.734375-12.25 7.070312-1.429688 5.335938 1.738281 10.816406 7.074219 12.246094l38.640625 10.351562c5.367187 1.441407 10.824218-1.773437 12.246094-7.070312 1.429687-5.335938-1.738282-10.820312-7.074219-12.246094zm0 0"/><path d="m394.199219 7.414062-10.363281 38.640626c-1.429688 5.335937 1.734374 10.816406 7.070312 12.25 5.332031 1.425781 10.816406-1.730469 12.25-7.070313l10.359375-38.640625c1.429687-5.335938-1.734375-10.820312-7.070313-12.25-5.332031-1.429688-10.816406 1.734375-12.246093 7.070312zm0 0"/></symbol><symbol id="magnet" viewBox="0 0 512 512"><title>magnet</title><g> <g> <path d="M116.001,312.002c-5.52,0-10,4.48-10,10s4.48,10,10,10s10-4.48,10-10C126.001,316.482,121.521,312.002,116.001,312.002z"/> </g> </g><g> <g> <path d="M435.999,120.003H336c-5.522,0-10,4.477-10,10v191.999c0,38.598-31.402,70-70,70c-38.525,0-70-31.168-70-70V130.003 c0-5.523-4.478-10-10-10H76.001c-5.522,0-10,4.477-10,10v191.999C66.001,426.767,151.234,512,256,512 s189.999-85.233,189.999-189.999V130.003C445.999,124.48,441.521,120.003,435.999,120.003z M86.001,140.003h80v72h-80V140.003z M425.999,322.002c0,93.737-76.262,169.999-169.999,169.999S86.001,415.739,86.001,322.002v-89.999h80v89.999 c0,49.533,40.074,90,89.999,90c49.626,0,89.999-40.374,89.999-90v-89.999h80V322.002z M425.999,212.002h-80v-72h80V212.002z"/> </g> </g><g> <g> <path d="M177.53,425.577c-22.037-16.739-38.457-40.467-46.238-66.809c-1.565-5.297-7.126-8.326-12.424-6.758 c-5.296,1.564-8.322,7.126-6.758,12.423c8.979,30.4,27.916,57.771,53.322,77.07c4.396,3.34,10.671,2.485,14.012-1.914 C182.785,435.192,181.928,428.918,177.53,425.577z"/> </g> </g><g> <g> <path d="M144.508,44.746c-1.822-2.948-5.041-4.743-8.507-4.743h-23.819l12.764-25.528c2.469-4.94,0.467-10.947-4.473-13.417 c-4.939-2.471-10.946-0.468-13.416,4.472l-20,40c-1.55,3.1-1.384,6.781,0.438,9.729c1.822,2.948,5.041,4.743,8.507,4.743h23.819 L107.057,85.53c-2.47,4.94-0.468,10.947,4.473,13.417c4.956,2.478,10.955,0.451,13.416-4.472l20-40 C146.496,51.375,146.33,47.694,144.508,44.746z"/> </g> </g><g> <g> <path d="M424.506,44.746c-1.822-2.948-5.041-4.743-8.507-4.743H392.18l12.764-25.528c2.469-4.94,0.467-10.947-4.473-13.417 c-4.939-2.471-10.946-0.468-13.416,4.472l-20,40c-1.55,3.1-1.384,6.781,0.438,9.729s5.041,4.743,8.507,4.743h23.819L387.055,85.53 c-2.47,4.94-0.468,10.947,4.473,13.417c4.956,2.478,10.955,0.451,13.416-4.472l20-40 C426.494,51.375,426.328,47.694,424.506,44.746z"/> </g> </g></symbol><symbol id="content" viewBox="0 0 512 512"><title>content</title><path d="m56 208a24.027 24.027 0 0 1 24-24h88v-16h-88a40.045 40.045 0 0 0 -40 40v48h16z"/><path d="m244 88a28 28 0 1 0 28 28 28.032 28.032 0 0 0 -28-28zm0 40a12 12 0 1 1 12-12 12.013 12.013 0 0 1 -12 12z"/><path d="m488 16h-169.353a48.246 48.246 0 0 0 -41.16 23.305l-10.017 16.695h-59.47a24.028 24.028 0 0 0 -24 24v144a24.027 24.027 0 0 0 24 24h48v32a8 8 0 0 0 13.121 6.146l45.779-38.146h109.1a24.027 24.027 0 0 0 24-24v-113.554a85.486 85.486 0 0 0 44.533-23.665l1.124-1.124a8 8 0 0 0 2.343-5.657v-56a8 8 0 0 0 -8-8zm-56 208a8.009 8.009 0 0 1 -8 8h-112a8 8 0 0 0 -5.121 1.854l-34.879 29.065v-22.919a8 8 0 0 0 -8-8h-56a8.009 8.009 0 0 1 -8-8v-11.471l71.774-43.064 67.788 45.191a8 8 0 0 0 8.016.5l43.847-21.924 40.575 27.049zm0-22.948-35.562-23.708a8 8 0 0 0 -8.016-.5l-43.847 21.924-68.137-45.425a8 8 0 0 0 -8.554-.2l-67.884 40.727v-113.87a8.009 8.009 0 0 1 8-8h124.687l-26.2 26.2a27.8 27.8 0 0 0 39.313 39.315l39.227-39.228a85.82 85.82 0 0 0 46.621 13.713c.118 0 .234-.008.352-.009zm48-124.394a70.106 70.106 0 0 1 -87.239 7.568l-4.323-2.882a8 8 0 0 0 -10.095 1l-43.857 43.856a11.858 11.858 0 0 1 -15.424 1.1 11.8 11.8 0 0 1 -1.262-17.782l39.857-39.858 16-16-11.314-11.317-13.657 13.657h-62.556l5.077-8.463a32.164 32.164 0 0 1 27.44-15.537h161.353z"/><path d="m472 272h-144a24.028 24.028 0 0 0 -24 24v44.686l-29.657 29.657a8 8 0 0 0 5.657 13.657h24v8a24.028 24.028 0 0 0 24 24h144a24.028 24.028 0 0 0 24-24v-96a24.028 24.028 0 0 0 -24-24zm8 120a8.009 8.009 0 0 1 -8 8h-144a8.009 8.009 0 0 1 -8-8v-16a8 8 0 0 0 -8-8h-12.687l18.344-18.343a8 8 0 0 0 2.343-5.657v-48a8.009 8.009 0 0 1 8-8h144a8.009 8.009 0 0 1 8 8z"/><path d="m336 304h80v16h-80z"/><path d="m432 304h32v16h-32z"/><path d="m336 368h128v16h-128z"/><path d="m336 336h128v16h-128z"/><path d="m72 200h16v16h-16z"/><path d="m104 200h16v16h-16z"/><path d="m136 200h16v16h-16z"/><path d="m72 232h96v16h-96z"/><path d="m40 416h144a24.028 24.028 0 0 0 24-24v-32h24a8 8 0 0 0 5.657-13.657l-29.657-29.657v-20.686a24.028 24.028 0 0 0 -24-24h-144a24.028 24.028 0 0 0 -24 24v96a24.028 24.028 0 0 0 24 24zm-8-120a8.009 8.009 0 0 1 8-8h144a8.009 8.009 0 0 1 8 8v24a8 8 0 0 0 2.343 5.657l18.344 18.343h-12.687a8 8 0 0 0 -8 8v40a8.009 8.009 0 0 1 -8 8h-144a8.009 8.009 0 0 1 -8-8z"/><path d="m48 304h16v16h-16z"/><path d="m48 336h16v16h-16z"/><path d="m48 368h16v16h-16z"/><path d="m80 304h96v16h-96z"/><path d="m80 336h96v16h-96z"/><path d="m80 368h96v16h-96z"/><path d="m424 432h-140.687a35.08 35.08 0 0 0 -24.97 10.343 19.185 19.185 0 0 1 -13.656 5.657h-41.374a19.185 19.185 0 0 1 -13.656-5.657 35.08 35.08 0 0 0 -24.97-10.343h-140.687a8 8 0 0 0 -8 8v24a32.036 32.036 0 0 0 32 32h352a32.036 32.036 0 0 0 32-32v-24a8 8 0 0 0 -8-8zm-8 32a16.019 16.019 0 0 1 -16 16h-352a16.019 16.019 0 0 1 -16-16v-16h132.687a19.185 19.185 0 0 1 13.656 5.657 35.08 35.08 0 0 0 24.97 10.343h41.374a35.08 35.08 0 0 0 24.97-10.343 19.185 19.185 0 0 1 13.656-5.657h132.687z"/></symbol></svg>