<svg xmlns="http://www.w3.org/2000/svg" xmlns:xlink="http://www.w3.org/1999/xlink"><symbol viewBox="0 -15 512.001 512" id="magnet" xmlns="http://www.w3.org/2000/svg"><path d="M362.16 106.691l-62.988 62.985 209.937-43.317-62.093-62.097L512 0 300.066 44.594zm0 0M332.883 255.18l63.64-63.637 84.852 84.852-63.64 63.64zm0 0M290.46 85.473l-63.64 63.64-84.851-84.851 63.64-63.64zm0 0M332.887 424.887l63.64-63.64-84.855-84.852-63.64 63.64c-29.29 29.29-76.774 29.29-106.063 0-29.293-29.293-29.293-76.777 0-106.066l63.636-63.64-84.851-84.856-63.64 63.64c-76.153 76.153-76.153 199.621 0 275.774 76.152 76.148 199.62 76.152 275.773 0zm0 0"/></symbol><symbol viewBox="0 0 512 512" id="promote" xmlns="http://www.w3.org/2000/svg"><path d="M376.253 191.801l10.605-10.605c17.547-17.547 17.547-46.093 0-63.64s-46.093-17.547-63.64 0l-10.605 10.605L206.545 22.095 185.332 43.31l21.213 21.213-22.507 108.066 148.493 148.493 107.358-23.215 21.215 21.215 21.215-21.215-106.066-106.066zM461.107 64.52l-42.425 42.426-21.213-21.212 42.426-42.426zM424.544 145.764l63.64-21.21 9.486 28.463-63.64 21.211zM330.2 70.386l28.463 9.486 21.213-70.385L351.412 0zM290.097 405.928l63.639 63.638-42.426 42.425-63.638-63.638zM162.825 448.36l21.213 21.213 127.28-127.279-148.493-148.493-127.278 127.28 21.212 21.213-42.427 42.426L120.4 490.787z"/></symbol><symbol viewBox="0 0 510 510" id="video-player" xmlns="http://www.w3.org/2000/svg"><path d="M90 115.456v68.302l59.764-35.196z"/><path d="M0 0v300h107.58c6.192-17.459 22.865-30 42.42-30s36.227 12.541 42.42 30H510V0zm60 236.241V64.543l150.236 83.221zM450 270H270v-30h180zm0-60H300v-30h150zm0-60h-90v-30h90zm0-60h-90V60h90z"/><circle cx="150" cy="315" r="15"/><path d="M307.707 450H202.293l-5 30H165v30h180v-30h-32.293zM150 360c-19.555 0-36.228-12.541-42.42-30H0v90h510v-90H192.42c-6.193 17.459-22.865 30-42.42 30z"/></symbol></svg>