<svg viewBox="0 0 480 170" xmlns="http://www.w3.org/2000/svg">
	<symbol id="logo" viewBox="0 0 480 170"><path d="M 394.014 80.092 C 395.539 72.78 400.56 68.31 407.974 68.31 C 415.072 68.31 419.98 72.992 421.069 80.092 L 394.014 80.092 Z M 436.007 85 C 436.007 67.545 424.888 55 408.31 55 C 390.744 55 378.199 67.432 378.199 85 C 378.199 102.341 390.632 115 408.523 115 C 418.127 115 425.865 111.62 431.65 104.082 L 422.81 94.817 C 419.104 99.499 414.96 101.464 408.636 101.464 C 400.774 101.464 395.652 97.207 394.014 89.796 L 435.58 89.796 C 435.907 88.381 436.007 86.527 436.007 85 M 334.128 56.745 L 334.128 113.248 L 349.401 113.248 L 349.401 70.627 L 378.199 70.627 L 378.199 56.745 L 334.128 56.745 M 328.131 56.745 L 312.86 56.745 L 312.86 113.25 L 328.131 113.25 L 328.131 56.745 M 308.696 56.745 L 293.864 56.745 L 286.447 99.942 L 286.009 99.942 L 278.373 56.745 L 255.684 56.745 L 248.05 99.942 L 247.612 99.942 L 240.303 56.745 L 225.359 56.745 L 237.577 113.248 L 258.412 113.248 L 266.81 69.834 L 267.248 69.834 L 275.539 113.248 L 296.59 113.248 L 308.696 56.745 M 183.37 80.092 C 184.898 72.78 189.907 68.31 197.33 68.31 C 204.417 68.31 209.326 72.992 210.414 80.092 L 183.369 80.092 Z M 225.363 85 C 225.363 67.545 214.234 55 197.655 55 C 180.09 55 167.544 67.432 167.544 85 C 167.544 102.341 179.975 115 197.868 115 C 207.471 115 215.21 111.62 220.993 104.082 L 212.156 94.817 C 208.448 99.499 204.303 101.464 197.98 101.464 C 190.131 101.464 184.999 97.207 183.37 89.796 L 224.926 89.796 C 225.25 88.381 225.363 86.527 225.363 85 M 152.055 113.248 L 169.619 56.745 L 153.693 56.745 L 142.02 99.942 L 141.586 99.942 L 129.804 56.745 L 113.769 56.745 L 131.439 113.248 L 152.055 113.248 M 109.608 56.745 L 94.338 56.745 L 94.338 113.25 L 109.609 113.25 L 109.609 56.745 M 88.34 113.248 L 88.34 99.364 L 59.539 99.364 L 59.539 56.745 L 44.267 56.745 L 44.267 113.248 L 88.34 113.248"/></symbol>
</svg>
