<?xml version="1.0" encoding="iso-8859-1"?>
<!-- Generator: Adobe Illustrator 19.0.0, SVG Export Plug-In . SVG Version: 6.00 Build 0)  -->
<svg xmlns="http://www.w3.org/2000/svg" xmlns:xlink="http://www.w3.org/1999/xlink" version="1.1" id="Layer_1" x="0px" y="0px" viewBox="0 0 512 512" style="enable-background:new 0 0 512 512;" xml:space="preserve" width="512" height="512">
<g>
	<path d="M376.253,191.801l10.605-10.605c17.547-17.547,17.547-46.093,0-63.64s-46.093-17.547-63.64,0l-10.605,10.605   L206.545,22.095L185.332,43.31l21.213,21.213l-22.507,108.066l148.493,148.493l107.358-23.215l21.215,21.215l21.215-21.215   L376.253,191.801z"/>
	
		<rect x="399.285" y="60.129" transform="matrix(-0.7071 0.7071 -0.7071 -0.7071 785.9586 -175.2966)" width="59.999" height="29.999"/>
	
		<rect x="427.563" y="134.374" transform="matrix(0.9487 -0.3162 0.3162 0.9487 -23.5744 153.4792)" width="67.081" height="30.003"/>
	<polygon points="330.2,70.386 358.663,79.872 379.876,9.487 351.412,0  "/>
	
		<rect x="255.711" y="428.967" transform="matrix(0.7071 0.7071 -0.7071 0.7071 412.6066 -78.2082)" width="89.999" height="59.999"/>
	<polygon points="162.825,448.36 184.038,469.573 311.318,342.294 162.825,193.801 35.547,321.081 56.759,342.294 14.332,384.72    120.4,490.787  "/>
</g>















</svg>
