<?xml version="1.0" encoding="utf-8"?>
<svg fill="#000000" viewBox="0 0 32 32" xmlns="http://www.w3.org/2000/svg">
  <path d="M 30.915 6.749 C 29.816 7.237 28.636 7.565 27.398 7.714 C 28.662 6.956 29.634 5.757 30.09 4.329 C 28.909 5.028 27.595 5.538 26.203 5.812 C 25.087 4.622 23.497 3.88 21.736 3.88 C 18.356 3.88 15.616 6.619 15.616 9.999 C 15.616 10.478 15.672 10.945 15.776 11.394 C 10.689 11.138 6.181 8.702 3.161 4.999 C 2.633 5.905 2.334 6.956 2.334 8.077 C 2.334 10.199 3.413 12.073 5.056 13.173 C 4.051 13.14 3.108 12.863 2.283 12.405 C 2.283 12.431 2.283 12.457 2.283 12.482 C 2.283 15.448 4.394 17.92 7.19 18.484 C 6.678 18.624 6.137 18.698 5.579 18.698 C 5.184 18.698 4.8 18.661 4.426 18.587 C 5.207 21.016 7.467 22.79 10.143 22.839 C 8.051 24.48 5.412 25.457 2.543 25.457 C 2.047 25.457 1.562 25.429 1.085 25.37 C 3.791 27.11 7.009 28.121 10.466 28.121 C 21.723 28.121 27.879 18.796 27.879 10.71 C 27.879 10.445 27.872 10.178 27.863 9.918 C 29.058 9.055 30.094 7.976 30.915 6.749 Z" style=""/>
</svg>