<svg id="Layer_1" enable-background="new 0 0 510 510" height="512" viewBox="0 0 510 510" width="512" xmlns="http://www.w3.org/2000/svg"><g><path d="m90 115.456v68.302l59.764-35.196z"/><path d="m0 0v300h107.58c6.192-17.459 22.865-30 42.42-30s36.227 12.541 42.42 30h317.58v-300zm60 236.241v-171.698l150.236 83.221zm390 33.759h-180v-30h180zm0-60h-150v-30h150zm0-60h-90v-30h90zm0-60h-90v-30h90z"/><circle cx="150" cy="315" r="15"/><path d="m307.707 450h-105.414l-5 30h-32.293v30h27.293 125.414 27.293v-30h-32.293z"/><path d="m150 360c-19.555 0-36.228-12.541-42.42-30h-107.58v90h510v-90h-317.58c-6.193 17.459-22.865 30-42.42 30z"/></g></svg>